PathFileType	4	(X/Y/Z)	H:\MAC\Cortex8\Teaching\Biomec1_N_2\Trimmed_walk2.trc
DataRate	CameraRate	NumFrames	NumMarkers	Units	OrigDataRate	OrigDataStartFrame	OrigNumFrames
150.00	150.00	       6	28	mm	150.00	47	       184
Frame#	Time	R.ASIS			L.ASIS			R.PSIS			L.PSIS			L.Iliac.Crest			R.Iliac.Crest			R.GTR			R.Knee			R.HF			R.TT			R.Ankle			R.Heel			R.MT1			R.MT5			L.GTR			L.Knee			L.HF			L.TT			L.Ankle			L.Heel			L.MT1			L.MT5			R.Knee.Medial			R.Ankle.Medial			R.MT2			L.Knee.Medial			L.Ankle.Medial			L.MT2			V_Mid_ASIS			V_Mid_PSIS			V_Pelvis_Origin			V_R.Hip_JC			V_R.Knee_JC_Static			V_R.TT			V_R.Ankle_JC_Static			V_L.Hip_JC			V_Mid_Hip			V_R.MT2_Static			V_R.Knee.Medial			V_R.Ankle.Medial			V_R.TT			V_L.Knee_JC_Static			V_L.TT			V_L.Ankle_JC_Static			V_L.MT2_Static			V_R.Knee_JC			V_R.Ankle_JC			V_L.Knee_JC			V_L.Ankle_JC			V_R.TT_KJC_Static			V_L.TT_KJC_Static			V_R.TT_KJC			V_L.TT_KJC			V_R.MT2			V_L.MT2			
		X1	Y1	Z1	X2	Y2	Z2	X3	Y3	Z3	X4	Y4	Z4	X5	Y5	Z5	X6	Y6	Z6	X7	Y7	Z7	X8	Y8	Z8	X9	Y9	Z9	X10	Y10	Z10	X11	Y11	Z11	X12	Y12	Z12	X13	Y13	Z13	X14	Y14	Z14	X15	Y15	Z15	X16	Y16	Z16	X17	Y17	Z17	X18	Y18	Z18	X19	Y19	Z19	X20	Y20	Z20	X21	Y21	Z21	X22	Y22	Z22	X23	Y23	Z23	X24	Y24	Z24	X25	Y25	Z25	X26	Y26	Z26	X27	Y27	Z27	X28	Y28	Z28	

47.0	0.307	-355.34949	1002.24603	-825.19	-605.79803	993.49194	-821.93164	-415.95676	995.8501	-618.0556	-493.26456	996.28088	-611.66412	-642.17114	1053.69006	-728.53259	-309.05978	1045.43542	-747.74365	-270.49771	926.67682	-779.27661	-285.12308	535.48059	-920.7821	-282.7627	474.10016	-933.95496	-330.41681	464.10989	-997.63989	-327.45407	124.29742	-851.83765	-387.39478	100.36291	-794.30542	-354.24762	86.63025	-1015.66138	-275.1261	80.17316	-973.03503	-675.49841	894.3114	-730.67255	-623.3255	502.08963	-677.96283	-615.90125	436.63895	-682.53253	-559.82129	425.61496	-738.96405	-548.44916	83.87486	-612.88129	-489.68173	54.55259	-546.83014	-484.58072	52.58915	-770.84326	-572.70758	47.403	-748.1178	-415.46661	523.04608	-951.69391	-406.00116	136.45952	-901.71912	-319.11783	95.48304	-1003.86841	-481.42206	492.93845	-686.74994	-460.06342	103.17262	-649.32507	-521.24268	58.46744	-770.25452
48.0	0.313	-355.49973	1001.20007	-832.05249	-606.13043	992.43988	-828.35144	-415.3959	994.64484	-624.97888	-492.93896	995.40741	-618.40778	-642.2193	1052.78796	-734.68652	-309.14066	1044.37891	-754.8786	-270.50571	925.45172	-786.2912	-286.37347	533.82697	-927.9422	-284.00183	472.71008	-942.45538	-331.30261	464.2915	-1006.72705	-326.53394	119.65332	-874.1825	-386.40277	93.03992	-817.88165	-353.41934	88.05235	-1039.46509	-274.13077	80.25446	-997.08295	-675.70142	893.58887	-736.36237	-623.6015	501.91824	-680.3103	-616.10687	436.40979	-684.50653	-560.12347	425.02881	-740.90173	-547.92065	83.98551	-613.22168	-489.63611	54.76144	-546.92725	-484.65244	52.56333	-770.73132	-572.76434	47.35695	-748.18585	-417.14392	521.87115	-959.65417	-405.22302	133.22401	-923.80414	-318.05121	96.50176	-1027.37012	-481.66046	492.67618	-689.35706	-459.47977	103.4594	-649.30634	-521.40387	58.17624	-770.36621
49.0	0.32	-355.56454	999.99884	-839.2146	-606.30426	991.36517	-834.89001	-415.19742	993.60455	-631.79083	-492.57697	994.54742	-625.12555	-642.19519	1051.87378	-741.00433	-309.12024	1043.21094	-761.88068	-270.43808	924.08905	-793.15424	-287.60492	532.00519	-934.83942	-285.33258	471.23627	-950.89502	-332.17804	464.2908	-1015.66022	-325.65594	115.46532	-896.40912	-385.46692	86.30427	-841.40424	-352.30438	89.94667	-1063.06982	-273.13574	80.85499	-1020.6012	-675.93127	892.8501	-742.15131	-623.82623	501.69485	-682.75085	-616.27661	436.17676	-686.55707	-560.36072	424.41797	-742.90039	-547.60193	84.1664	-613.44458	-489.52679	54.93025	-547.05267	-484.70532	52.45679	-770.82562	-572.8667	47.37175	-748.24841	-418.80673	520.586	-967.74707	-404.39276	130.44591	-945.71692	-316.92105	98.02168	-1050.5365	-481.8652	492.38974	-691.93622	-459.4567	103.21284	-649.66919	-521.49158	57.99111	-770.521
50.0	0.327	-355.66815	998.86835	-846.12506	-606.4754	990.25592	-841.48236	-414.83188	992.46948	-638.79095	-492.2496	993.68658	-631.9679	-642.14661	1050.94446	-747.35553	-309.10776	1041.88037	-768.99231	-270.38904	922.56018	-800.02295	-288.8678	530.02728	-941.67651	-286.65118	469.63513	-958.99799	-333.00836	464.29697	-1024.27661	-324.82291	111.69723	-918.58209	-384.57214	80.07648	-864.88477	-351.45663	92.41075	-1086.11304	-271.85443	81.87917	-1044.6626	-676.14252	892.07587	-748.03302	-624.09021	501.48798	-685.28217	-616.44946	435.93219	-688.6369	-560.57458	423.81372	-744.95148	-547.453	84.34521	-613.58392	-489.42047	55.10883	-547.17242	-484.77249	52.34422	-770.93457	-572.86127	47.22485	-748.35431	-420.52264	519.2337	-975.65564	-403.57913	128.17838	-967.51825	-315.56705	100.532	-1073.60669	-481.9805	492.08408	-694.45966	-459.54077	102.7276	-650.34906	-521.55768	57.80384	-770.62311
51.0	0.333	-355.63174	997.58209	-853.37982	-606.62482	989.16644	-848.14185	-414.49918	991.56512	-645.7851	-492.05872	992.99194	-638.71674	-642.05615	1050.02905	-753.87927	-308.98691	1040.53857	-776.08893	-270.33582	920.88336	-806.81659	-290.06024	528.02905	-948.06152	-287.80759	468.04306	-966.95483	-333.89172	464.18143	-1032.7262	-324.39001	107.65453	-941.39978	-383.77518	74.28127	-888.48737	-349.7843	95.09464	-1109.04565	-270.65591	83.41996	-1067.79138	-676.38599	891.25085	-754.11255	-624.29901	501.2684	-687.90179	-616.59753	435.69559	-690.83185	-560.73962	423.19925	-747.0517	-547.30103	84.52317	-613.72046	-489.31085	55.33947	-547.26709	-484.828	52.24543	-771.02985	-572.92114	47.18358	-748.4292	-422.28256	517.9231	-983.60889	-402.75974	126.27721	-989.1394	-314.52048	102.64384	-1095.74365	-482.07074	491.81079	-696.9856	-459.51675	102.69587	-650.71021	-521.54779	57.5566	-770.77167
52.0	0.34	-355.57004	996.25623	-860.63354	-606.7619	987.97986	-854.84515	-414.2706	990.60388	-652.93823	-491.56845	992.02533	-645.79791	-641.92358	1049.0354	-760.54401	-308.85983	1039.0509	-783.35022	-270.29318	919.08929	-813.68262	-291.16849	525.91241	-954.27344	-288.93777	466.29929	-975.19379	-334.78192	463.98062	-1040.9552	-323.59979	104.65921	-963.43097	-382.89807	69.10551	-911.85663	-348.83417	98.57638	-1131.26416	-269.43735	84.98336	-1090.25098	-676.65747	890.36877	-760.31042	-624.45575	501.03943	-690.55774	-616.70276	435.42706	-693.09216	-560.8606	422.52664	-749.2218	-547.13434	84.71223	-613.87787	-489.18207	55.56027	-547.41162	-484.84576	52.19559	-771.08801	-572.96838	47.13984	-748.50885	-423.84439	516.3974	-991.32184	-401.70206	124.92941	-1010.39392	-313.01324	105.77338	-1117.85815	-481.92102	491.57156	-699.33655	-459.34238	102.84768	-650.95844	-521.52698	57.49099	-770.85474
